# xmcd CD database file
#
# Track frame offsets:
#	150
#	37019
#	48058
#	57884
#	69908
#	89152
#	99891
#	117105
#
# Disc length: 1808 seconds
#
# Revision: 0
# Processed by: cddbd v1.5.2PL0 Copyright (c) Steve Scherf et al.
# Submitted via: Feurio! 1.68 - http://www.feurio.com
#
DISCID=60070e08
DTITLE=BlueSoul - Demo CD
DYEAR=1900
DGENRE=Blues
TTITLE0=Datentrack
TTITLE1=The Man Belongs To Me
TTITLE2=Outside Man
TTITLE3=Didn't We
TTITLE4=It Shoud Be Rainin'
TTITLE5=The Man From New Orleans
TTITLE6=Save Me
TTITLE7=The Rock
EXTD=
EXTT0=
EXTT1=
EXTT2=
EXTT3=
EXTT4=
EXTT5=
EXTT6=
EXTT7=
PLAYORDER=
